<svg width="34" height="34" viewBox="0 0 34 34" fill="none" xmlns="http://www.w3.org/2000/svg">
<circle cx="17" cy="17" r="16.9" stroke="#00326D" stroke-width="0.2"/>
<path d="M13.3143 6.0273C13.1659 6.06627 11.4492 7.01174 11.3476 7.11045C11.1196 7.32863 11.0675 7.64812 11.2103 7.91306C11.3586 8.1858 14.3662 13.1028 14.4377 13.1911C14.597 13.3807 14.9485 13.4924 15.1957 13.4275C15.3221 13.3963 17.0141 12.4794 17.1596 12.3651C17.3464 12.2171 17.448 11.9002 17.3821 11.6716C17.3656 11.6144 16.6295 10.3807 15.7451 8.93127C14.4432 6.79615 14.1135 6.27406 14.0119 6.18575C13.8251 6.01951 13.5615 5.95977 13.3143 6.0273Z" fill="#00326D"/>
<path d="M10.2441 8.28968C9.65631 8.62735 9.36241 8.82995 9.04929 9.11308C8.13189 9.94167 7.88744 10.7651 8.044 12.4768C8.26923 14.9236 9.55194 18.1938 11.4746 21.2172C13.2792 24.0537 15.4464 26.4018 17.4487 27.6901C18.4787 28.3525 19.1187 28.5811 19.9482 28.5811C20.503 28.5811 20.9645 28.4772 21.6127 28.2044C21.9148 28.0745 22.6153 27.7239 22.64 27.6875C22.6482 27.6719 19.517 22.5134 19.3494 22.264C19.3329 22.2381 19.3027 22.2432 19.2203 22.2822C19.0308 22.3731 18.7177 22.4614 18.4732 22.49C17.5751 22.5939 16.5121 22.1056 15.526 21.1341C14.3065 19.9341 13.3396 18.1652 13.0402 16.5808C12.8178 15.4171 12.9853 14.4794 13.5209 13.8846C13.6116 13.7833 13.9164 13.5417 13.9769 13.5236C13.9988 13.5158 13.3808 12.482 12.3563 10.7988C11.4444 9.30789 10.6918 8.07929 10.6808 8.0689C10.6698 8.05591 10.4748 8.15721 10.2441 8.28968Z" fill="#00326D"/>
<path d="M21.9934 20.0744C21.8423 20.0925 21.867 20.0821 20.859 20.6302C20.4085 20.8744 19.9965 21.1133 19.9443 21.1601C19.7466 21.3393 19.6642 21.6406 19.7466 21.8692C19.7933 21.9991 22.919 27.1317 23.0344 27.2667C23.2294 27.5005 23.6167 27.5706 23.9298 27.4278C24.166 27.3213 25.6163 26.5265 25.7289 26.4407C25.8827 26.3239 25.9761 26.129 25.9761 25.916C25.9761 25.8199 25.9623 25.7057 25.9431 25.6667C25.8497 25.4589 22.7157 20.3601 22.6306 20.277C22.4631 20.1107 22.2433 20.0406 21.9934 20.0744Z" fill="#00326D"/>
</svg>
