<svg width="274" height="80" viewBox="0 0 274 80" fill="none" xmlns="http://www.w3.org/2000/svg">
<path d="M133.026 79.1292C133.32 79.666 133.883 80.0041 134.495 79.9933C137.813 79.9347 143.362 79.3482 146.135 73.4838C149.004 67.4148 139.591 72.8389 133.536 76.9642C132.832 77.4444 132.616 78.3813 133.026 79.1292Z" fill="#F5F8FF"/>
<path d="M169.681 0.960418C169.406 0.374369 168.819 -0.00565338 168.171 0.00928783C165.037 0.0816278 159.957 0.728812 157.416 6.51616C154.742 12.6064 163.554 7.12296 169.173 2.99242C169.808 2.52561 170.016 1.67383 169.681 0.960418Z" fill="#F5F8FF"/>
<rect x="114.188" y="0.342285" width="28.7179" height="79.6581" rx="8" fill="#F5F8FF"/>
<rect x="160.342" width="28.7179" height="79.6581" rx="8" fill="#F5F8FF"/>
<rect x="129.6" y="74.2383" width="78.9675" height="15.0779" rx="7.53894" transform="rotate(-67.7131 129.6 74.2383)" fill="#F5F8FF"/>
<rect x="220.855" width="30.4273" height="79.6581" rx="8" fill="#F5F8FF"/>
<rect x="273.162" width="22.2222" height="74.5299" rx="8" transform="rotate(90 273.162 0)" fill="#F5F8FF"/>
<path d="M56.0684 31.9654V46.3244C56.0684 50.0167 56.98 52.3073 57.4359 52.9911C60.6837 57.7204 68 68.4099 71.282 73.3329C74.5641 78.256 80.3988 79.7147 82.906 79.8287H101.197C105.162 79.8287 104.558 75.4982 103.761 73.3329C103.761 73.3329 81.0256 42.7346 80.5128 42.0509C80 41.3671 79.1111 40.8885 78.9743 38.974C78.8376 37.0594 80.5128 35.7261 80.5128 35.7261C80.5128 35.7261 102.12 9.77739 103.761 6.49534C105.402 3.21329 103.077 1.25318 101.709 0.683379C96.0683 0.455459 84 0.136371 80.8547 0.683379C77.7094 1.23039 74.188 3.98822 72.8205 5.29876C71.453 6.6093 58.8034 24.1022 58.8034 24.1022C58.8034 24.1022 57.2952 26.1714 56.7521 27.6919C56.1836 29.2836 56.0684 31.9654 56.0684 31.9654Z" fill="#F5F8FF"/>
<path d="M26.3242 45.1275C26.3242 49.8479 30.1508 53.6745 34.8712 53.6745L35.0422 53.6745L26.6661 62.0506C26.6661 57.2358 22.7629 53.3326 17.9482 53.3326L26.3242 45.1275Z" fill="#F5F8FF"/>
<rect y="27.0083" width="26.3248" height="26.3248" rx="8" fill="#F5F8FF"/>
<rect x="26.666" y="0.683594" width="26.3248" height="26.3248" rx="8" fill="#F5F8FF"/>
<rect x="26.666" y="53.6743" width="26.3248" height="26.3248" rx="8" fill="#F5F8FF"/>
</svg>
