<svg width="134" height="40" viewBox="0 0 134 40" fill="none" xmlns="http://www.w3.org/2000/svg">
<path fill-rule="evenodd" clip-rule="evenodd" d="M76.8142 3.17942C76.7159 3.3992 76.6345 3.5825 76.5675 3.73525C76.5289 3.81324 76.4928 3.89315 76.4593 3.9749L69.7337 20.3843V4.16699C69.7337 1.95785 67.9428 0.166992 65.7337 0.166992H59.7202C57.5111 0.166992 55.7202 1.95785 55.7202 4.16699V35.0377C55.7202 37.2468 57.5111 39.0377 59.7202 39.0377H65.7337C65.8801 39.0377 66.0247 39.0298 66.167 39.0145C67.7107 38.9236 69.8556 38.4736 71.1083 36.2478C71.2382 36.051 71.351 35.8388 71.4438 35.6124L78.2419 19.026V34.8707C78.2419 37.0798 80.0328 38.8707 82.2419 38.8707H88.2554C90.4646 38.8707 92.2554 37.0799 92.2554 34.8707V4C92.2554 1.79086 90.4646 0 88.2554 0H82.2419C82.1723 0 82.103 0.00178155 82.0342 0.00530157C80.5063 0.0455942 78.0653 0.381641 76.8142 3.17942Z" fill="#00326D"/>
<path fill-rule="evenodd" clip-rule="evenodd" d="M133.295 4C133.295 1.79086 131.504 0 129.295 0H118.618H111.77H100.927C98.7174 0 96.9265 1.79086 96.9265 4L96.9265 6.84376C96.9265 9.0529 98.7174 10.8438 100.927 10.8438H107.77V34.8707C107.77 37.0798 109.561 38.8707 111.77 38.8707H118.618C120.827 38.8707 122.618 37.0799 122.618 34.8707V10.8438H129.295C131.504 10.8438 133.295 9.0529 133.295 6.84376V4Z" fill="#00326D"/>
<path d="M27.3596 15.5981V22.6048C27.3596 24.4066 27.8045 25.5243 28.0269 25.858C29.6118 28.1657 33.1819 33.3819 34.7834 35.7842C36.385 38.1865 39.2321 38.8983 40.4555 38.9539H49.3808C51.316 38.9539 51.0213 36.8407 50.632 35.7842C50.632 35.7842 39.538 20.8531 39.2878 20.5195C39.0375 20.1858 38.6038 19.9523 38.537 19.018C38.4703 18.0838 39.2878 17.4332 39.2878 17.4332C39.2878 17.4332 49.8312 4.77101 50.632 3.16947C51.4328 1.56793 50.2983 0.611461 49.631 0.333417C46.8784 0.222199 40.9894 0.066494 39.4546 0.333417C37.9198 0.600341 36.2015 1.94608 35.5341 2.58558C34.8668 3.22509 28.6942 11.7611 28.6942 11.7611C28.6942 11.7611 27.9583 12.7708 27.6933 13.5128C27.4159 14.2894 27.3596 15.5981 27.3596 15.5981Z" fill="#00326D"/>
<rect x="13.0125" y="0.333496" width="12.8457" height="12.8457" rx="4" fill="#00326D"/>
<path fill-rule="evenodd" clip-rule="evenodd" d="M0 17.1792C0 14.9701 1.79086 13.1792 4 13.1792H8.84568C11.0548 13.1792 12.8457 14.9701 12.8457 17.1792V22.0209L12.8457 22.0209C12.8457 24.3144 14.6969 26.1755 16.9867 26.1915C16.9953 26.1914 17.0038 26.1914 17.0125 26.1914H21.8581C24.0673 26.1914 25.8581 27.9823 25.8581 30.1914V35.0371C25.8581 37.2462 24.0673 39.0371 21.8581 39.0371H17.0125C14.8033 39.0371 13.0125 37.2462 13.0125 35.0371V30.2526C12.9984 27.9261 11.1168 26.0423 8.79101 26.0249H4C1.79087 26.0249 0 24.234 0 22.0249V17.1792Z" fill="#008BD0"/>
</svg>
